<svg width="195" height="119" viewBox="0 0 195 119" fill="none" xmlns="http://www.w3.org/2000/svg">
<g clip-path="url(#clip0_303_1210)">
<mask id="mask0_303_1210" style="mask-type:luminance" maskUnits="userSpaceOnUse" x="0" y="0" width="195" height="119">
<path d="M194.53 0H0V118.436H194.53V0Z" fill="white"/>
</mask>
<g mask="url(#mask0_303_1210)">
<path d="M194.348 24.6356C194.181 24.0074 193.803 23.0725 192.933 22.2094C193.134 21.1833 193.034 20.3155 192.861 19.6634C192.646 18.8483 192.101 17.6064 190.719 16.6282C190.853 15.7268 190.758 14.9597 190.6 14.3699C190.179 12.7877 188.683 10.093 183.338 9.81963C183.061 9.80527 182.774 9.80048 182.492 9.80048C176.173 9.80048 168.667 13.3247 166.439 14.4466L164.12 14.8302C162.089 10.7259 159.608 8.27093 156.725 7.51337C156.132 7.3599 155.526 7.2784 154.923 7.2784C153.178 7.2784 151.462 7.93532 149.951 9.17234C146.294 12.1787 146.978 17.6496 151.796 24.3047C150.114 25.1055 148.77 26.4912 147.91 28.294L137.952 32.336L142.594 22.9143C143.158 21.7635 143.043 20.4065 142.293 19.3709C141.652 18.4838 140.615 17.9564 139.52 17.9564C139.357 17.9564 139.19 17.966 139.023 17.9948L121.263 20.6032L118.251 2.85761C118.036 1.59179 117.147 0.560903 115.923 0.162935C115.584 0.0526547 115.23 -0.00488281 114.871 -0.00488281C113.973 -0.00488281 113.122 0.340343 112.477 0.973255L99.6359 13.5596L86.7951 0.973255C86.1501 0.340343 85.299 -0.00488281 84.3999 -0.00488281C84.0416 -0.00488281 83.693 0.0526547 83.3389 0.162935C82.1245 0.560903 81.2353 1.59179 81.0205 2.85761L78.0087 20.6032L60.2442 17.9948C60.0816 17.9708 59.9191 17.9612 59.7518 17.9612C58.657 17.9612 57.6196 18.4935 56.979 19.3757C56.2237 20.4114 56.109 21.7731 56.6779 22.9238L63.7485 37.2747C61.7308 36.5315 59.637 35.7547 57.5432 34.9827C53.2455 33.4005 49.7556 32.1107 46.9112 31.0654C46.089 28.9173 44.6165 27.2487 42.7139 26.3425C47.5279 19.6873 48.2163 14.2165 44.5592 11.2101C43.0485 9.96832 41.3323 9.31618 39.5874 9.31618C38.9851 9.31618 38.378 9.39289 37.7852 9.55115C34.9025 10.3039 32.4213 12.7637 30.3896 16.868L28.0711 16.4844C25.8434 15.3624 18.3427 11.8383 12.0085 11.8383C11.7264 11.8383 11.4491 11.843 11.1719 11.8575C5.82719 12.1307 4.3261 14.8254 3.90541 16.4077C3.74765 16.9975 3.65682 17.7646 3.78589 18.6661C2.4091 19.6442 1.86412 20.8861 1.64899 21.7012C1.47689 22.3485 1.38128 23.2163 1.57728 24.2472C0.707226 25.1102 0.32478 26.0453 0.157461 26.6734C-0.62655 29.6413 1.21396 32.4655 3.4656 34.4074C1.95495 36.613 1.76851 39.2213 2.98754 41.4941C4.38824 44.1024 7.39522 45.7231 10.8372 45.7231C11.1814 45.7231 11.5304 45.7087 11.8746 45.6751C14.719 45.4019 17.3388 44.5292 19.1315 43.7908C20.6039 45.1285 22.8364 46.6485 25.9294 47.4252C26.9906 47.6938 28.0711 47.828 29.1515 47.828C30.2319 47.828 31.2883 47.6938 32.3305 47.43C32.6174 47.6026 32.909 47.7513 33.2149 47.8807C34.1902 48.2979 35.2276 48.5089 36.3032 48.5089C38.0816 48.5089 39.8982 47.9239 41.5474 46.8355C43.3353 47.4924 45.2571 48.1972 47.2698 48.9356C47.0355 49.4055 46.9064 49.9329 46.9064 50.4795C46.9064 51.7597 47.6092 52.9248 48.7422 53.5242L64.6278 61.8862L56.6779 78.0206C56.1138 79.1718 56.2285 80.5286 56.979 81.5644C57.6196 82.4512 58.657 82.9832 59.7566 82.9832C59.9143 82.9832 60.072 82.974 60.249 82.9501L64.0927 82.3843L60.2298 86.8192C59.2354 84.5658 57.5288 82.264 54.6509 80.4807C52.3753 79.0662 50.0042 78.3519 47.6044 78.3519C46.3758 78.3519 45.152 78.5434 43.9712 78.9269C40.3284 80.1015 37.2306 83.0937 35.4475 87.15C34.9551 87.917 34.5678 88.7657 34.3049 89.677C32.56 95.6706 36.0976 103.462 42.5801 108.166C43.67 111.191 47.2506 118.45 56.501 118.45C56.7687 118.45 57.0412 118.446 57.3184 118.431C57.3854 118.431 57.4523 118.422 57.5144 118.417C57.6626 118.436 57.8156 118.45 57.9638 118.45C58.3415 118.45 58.7144 118.388 59.0682 118.269C59.0968 118.259 59.2068 118.22 59.3788 118.153C60.7604 117.837 61.8983 117.257 62.7728 116.432C65.1488 114.912 66.8223 113.08 67.7403 110.98C68.4381 109.383 68.6056 107.657 68.2374 105.907C68.8351 105.121 69.2505 104.224 69.461 103.246C69.5899 102.637 69.6378 102.004 69.6095 101.343L79.6146 89.8544L81.0107 98.0964C81.2261 99.3624 82.1153 100.393 83.3291 100.787C83.6734 100.897 84.0324 100.954 84.3907 100.954C85.2891 100.954 86.1403 100.604 86.7859 99.9761L99.6218 87.3899L112.462 99.9761C113.108 100.604 113.958 100.954 114.857 100.954C115.215 100.954 115.57 100.897 115.918 100.787C117.133 100.388 118.022 99.3575 118.237 98.0921L119.633 89.8495L129.638 101.338C129.61 101.995 129.658 102.633 129.787 103.241C129.997 104.22 130.408 105.121 131.01 105.903C130.642 107.653 130.81 109.379 131.508 110.975C132.426 113.076 134.099 114.907 136.474 116.427C137.35 117.257 138.487 117.832 139.869 118.148C140.041 118.216 140.146 118.249 140.18 118.264C140.538 118.383 140.911 118.446 141.284 118.446C141.432 118.446 141.585 118.436 141.734 118.412C141.8 118.417 141.862 118.422 141.929 118.426C142.202 118.441 142.469 118.446 142.747 118.446C151.997 118.446 155.578 111.181 156.668 108.161C163.15 103.462 166.688 95.6657 164.943 89.6721C164.675 88.7614 164.293 87.9127 163.8 87.1451C162.013 83.0888 158.92 80.1015 155.276 78.922C154.096 78.5434 152.877 78.347 151.648 78.347C149.248 78.347 146.877 79.0613 144.597 80.4758C141.719 82.2597 140.012 84.5609 139.018 86.8143L135.155 82.3794L139.018 82.9452C139.176 82.9642 139.334 82.9789 139.491 82.9789C140.586 82.9789 141.624 82.4512 142.264 81.5644C143.019 80.5286 143.134 79.1669 142.565 78.0163L134.615 61.8813L150.501 53.5146C151.634 52.9201 152.332 51.755 152.332 50.47C152.332 49.185 151.629 48.0246 150.496 47.4252L148.097 46.1642L152.394 44.4189C154.177 45.747 156.18 46.4663 158.173 46.4663C159.249 46.4663 160.291 46.2553 161.262 45.8382C161.563 45.7087 161.86 45.5601 162.141 45.3874C163.183 45.6512 164.245 45.7854 165.321 45.7854C166.396 45.7854 167.481 45.6512 168.542 45.3827C171.636 44.6059 173.868 43.086 175.341 41.7482C177.133 42.4866 179.753 43.364 182.598 43.6326C182.941 43.6661 183.291 43.6805 183.63 43.6805C187.072 43.6805 190.079 42.0599 191.48 39.4515C192.699 37.1788 192.513 34.5704 191.002 32.3648C193.253 30.4277 195.094 27.5987 194.31 24.6308L194.348 24.6356Z" fill="white"/>
<path d="M164.508 30.5382C163.499 28.0401 160.659 26.8318 158.169 27.8435L120.675 43.0622C118.184 44.0739 116.98 46.9172 117.989 49.4201C118.753 51.3188 120.579 52.4696 122.501 52.4696C123.108 52.4696 123.725 52.3545 124.327 52.11L161.821 36.8913C164.312 35.8796 165.516 33.0363 164.508 30.5334V30.5382Z" fill="#FD2222"/>
<path d="M122.5 53.1934C120.216 53.1934 118.179 51.8173 117.324 49.6932C116.166 46.8307 117.553 43.5606 120.407 42.4003L157.901 27.1816C159.282 26.6206 160.803 26.635 162.175 27.2152C163.546 27.8001 164.613 28.8838 165.172 30.2694C166.329 33.132 164.942 36.402 162.088 37.5623L124.595 52.781C123.925 53.0544 123.218 53.1934 122.5 53.1934ZM159.999 28.2077C159.473 28.2077 158.943 28.3084 158.441 28.5146L120.947 43.7332C118.825 44.5963 117.797 47.0272 118.657 49.1514C119.293 50.7336 120.804 51.7549 122.505 51.7549C123.041 51.7549 123.562 51.6542 124.059 51.4481L161.553 36.2294C163.676 35.3663 164.704 32.9354 163.843 30.8113C163.427 29.7804 162.638 28.9749 161.615 28.5385C161.094 28.318 160.544 28.2077 159.994 28.2077H159.999Z" fill="black"/>
<path d="M159.949 42.6698C162.985 41.3663 163.983 36.8797 162.178 32.6485C160.372 28.4173 156.447 26.0439 153.41 27.3474C150.374 28.6508 149.376 33.1375 151.182 37.3687C152.987 41.5998 156.912 43.9732 159.949 42.6698Z" fill="white"/>
<path d="M158.208 43.7475C155.263 43.7475 152.107 41.3694 150.525 37.6581C148.565 33.0696 149.737 28.1501 153.131 26.6925C156.525 25.2349 160.88 27.7857 162.835 32.3743C164.795 36.9629 163.624 41.8824 160.23 43.34C159.584 43.6181 158.9 43.7523 158.208 43.7523V43.7475ZM151.845 37.0876C153.494 40.9474 157.003 43.1578 159.671 42.0119C162.338 40.8659 163.165 36.7951 161.52 32.9353C159.871 29.0755 156.367 26.8651 153.695 28.011C151.027 29.157 150.2 33.2278 151.845 37.0876Z" fill="black"/>
<path d="M178.783 16.9592L159.058 24.1227L156.438 33.5301L165.359 38.8955L177.564 34.5705L182.134 28.8264L184.247 22.5068L178.783 16.9592Z" fill="white"/>
<path d="M183.864 20.3876C187.54 18.0285 189.677 13.5886 183.161 13.2529C176.646 12.9173 167.524 17.7505 167.524 17.7505L162.06 18.6614C159.22 11.3973 155.463 9.10063 152.126 11.8385C148.464 14.8448 155.606 23.648 155.606 23.648C153.876 27.5222 155.946 32.3698 155.946 32.3698" fill="white"/>
<path d="M155.946 33.0889C155.668 33.0889 155.401 32.9259 155.286 32.6526C155.2 32.4512 153.249 27.7906 154.779 23.7631C153.326 21.8978 147.881 14.3892 151.671 11.2774C153.049 10.1458 154.559 9.75267 156.041 10.141C158.465 10.7739 160.697 13.4351 162.509 17.8511L167.295 17.0551C168.384 16.4893 176.86 12.2028 183.199 12.5336C186.646 12.711 187.702 14.0104 187.985 15.0653C188.535 17.151 186.508 19.5436 184.256 20.9917C183.921 21.2074 183.482 21.1067 183.266 20.7759C183.052 20.4402 183.152 19.9991 183.486 19.7834C185.533 18.4696 186.9 16.5613 186.603 15.4393C186.379 14.6001 185.15 14.0776 183.133 13.9721C176.879 13.6556 167.954 18.3353 167.863 18.3833C167.797 18.4216 167.72 18.4456 167.644 18.4552L162.179 19.3662C161.85 19.4238 161.519 19.2368 161.396 18.9203C159.741 14.6913 157.714 12.0685 155.682 11.5363C154.645 11.263 153.603 11.5507 152.585 12.3946C150.051 14.4755 154.43 21.054 156.165 23.1973C156.338 23.4082 156.376 23.6959 156.266 23.9453C154.688 27.479 156.591 32.0484 156.61 32.0916C156.763 32.456 156.595 32.8779 156.232 33.0362C156.141 33.0745 156.046 33.0937 155.95 33.0937L155.946 33.0889Z" fill="black"/>
<path d="M171.76 22.1905C171.76 22.1905 178.906 18.2108 185.422 18.5465C191.938 18.8821 189.801 23.3221 186.125 25.6811" fill="white"/>
<path d="M186.126 26.4002C185.891 26.4002 185.657 26.2852 185.523 26.0694C185.308 25.7338 185.408 25.2878 185.743 25.0769C187.789 23.7631 189.157 21.8548 188.86 20.7328C188.64 19.8937 187.407 19.3711 185.389 19.2656C179.155 18.9491 172.18 22.7802 172.114 22.8185C171.765 23.0103 171.33 22.8857 171.138 22.5404C170.948 22.1952 171.072 21.7541 171.416 21.5623C171.717 21.3945 178.831 17.4867 185.461 17.8272C188.908 18.0046 189.964 19.3039 190.247 20.3588C190.796 22.4445 188.769 24.8372 186.517 26.2852C186.398 26.3619 186.264 26.4002 186.13 26.4002H186.126Z" fill="black"/>
<path d="M173.089 27.2343C173.089 27.2343 180.393 23.1828 186.909 23.5136C193.425 23.8444 191.288 28.2892 187.612 30.6482C183.936 33.0073 175.24 34.2635 175.24 34.2635" fill="white"/>
<path d="M175.235 34.9828C174.886 34.9828 174.575 34.7239 174.527 34.3643C174.47 33.9712 174.743 33.6067 175.135 33.5492C175.221 33.5348 183.721 32.2881 187.225 30.0394C189.271 28.7257 190.638 26.8173 190.342 25.6954C190.122 24.8562 188.888 24.3336 186.871 24.2281C180.637 23.9165 173.505 27.8194 173.433 27.8578C173.089 28.0496 172.649 27.9249 172.458 27.5749C172.267 27.2248 172.391 26.7885 172.74 26.5968C173.045 26.4289 180.308 22.4493 186.943 22.7897C190.389 22.9671 191.446 24.2665 191.728 25.3213C192.278 27.4071 190.251 29.7997 187.999 31.2477C184.237 33.6643 175.704 34.9157 175.341 34.9685C175.307 34.9733 175.274 34.9781 175.235 34.9781V34.9828Z" fill="black"/>
<path d="M155.502 31.0752C153.761 35.4911 159.675 44.0786 167.744 42.0456C172.353 40.8853 174.542 37.5626 174.542 37.5626C174.542 37.5626 178.481 39.7825 182.956 40.2141C187.431 40.6456 190.476 37.1166 187.985 34.0144C185.495 30.9121 175.771 32.2115 175.771 32.2115" fill="white"/>
<path d="M165.359 43.062C162.309 43.062 159.374 41.7051 157.18 39.1974C154.852 36.5363 153.91 33.1655 154.837 30.8113C154.98 30.4421 155.401 30.2599 155.77 30.4085C156.138 30.5524 156.319 30.9743 156.171 31.3435C155.449 33.1799 156.305 36.0232 158.256 38.2528C159.426 39.5954 162.687 42.5825 167.573 41.3503C171.832 40.281 173.931 37.1979 173.95 37.1644C174.155 36.8528 174.572 36.7521 174.896 36.9342C174.935 36.9535 178.764 39.0871 183.028 39.4947C185.5 39.7296 187.24 38.6556 187.866 37.4856C188.383 36.5267 188.225 35.4526 187.426 34.4649C185.59 32.1778 178.458 32.5806 175.867 32.9258C175.475 32.9785 175.112 32.7004 175.064 32.3073C175.011 31.9141 175.288 31.5497 175.68 31.497C176.718 31.3579 185.878 30.2359 188.545 33.5587C189.711 35.0067 189.922 36.6897 189.128 38.1665C188.105 40.0748 185.595 41.1872 182.89 40.9283C179.256 40.5831 176.011 39.1159 174.748 38.4829C173.897 39.5187 171.67 41.801 167.917 42.7455C167.061 42.9613 166.205 43.0668 165.354 43.0668L165.359 43.062Z" fill="black"/>
<path d="M169.112 28.0926C169.112 28.0926 165.135 24.6548 160.722 26.8028L169.112 28.0926Z" fill="white"/>
<path d="M169.112 28.812C168.945 28.812 168.782 28.7544 168.643 28.6394C168.495 28.5099 164.958 25.5419 161.033 27.4503C160.674 27.6229 160.249 27.4742 160.077 27.1194C159.904 26.7598 160.053 26.3331 160.406 26.1605C165.187 23.8302 169.403 27.3975 169.581 27.5509C169.881 27.8099 169.915 28.2654 169.657 28.5675C169.514 28.7305 169.317 28.8168 169.112 28.8168V28.812Z" fill="black"/>
<path d="M78.2858 46.3177C78.2858 46.3177 67.3712 42.2661 56.3811 38.2097C33.6113 29.8092 33.5635 29.8092 32.3827 29.8044H32.354C29.6769 29.8044 27.5018 31.9717 27.4874 34.6616C27.473 36.9727 29.065 38.9146 31.2115 39.4324C33.8455 40.2763 58.6374 49.4296 74.9106 55.471C75.4697 55.6772 76.0385 55.7779 76.5982 55.7779C78.5772 55.7779 80.4366 54.5599 81.1632 52.5893C82.0953 50.0624 80.8097 47.2527 78.29 46.3177H78.2858Z" fill="#FD2222"/>
<path d="M76.5935 56.497C75.9339 56.497 75.2791 56.3771 74.6574 56.1469C58.5947 50.1822 33.7645 41.0145 31.0158 40.1227C28.5012 39.5042 26.7563 37.2554 26.7706 34.6519C26.785 31.5784 29.29 29.0803 32.3543 29.0803C33.2594 29.0867 41.3513 31.9028 56.6299 37.5288C67.6108 41.5803 78.5198 45.6319 78.5345 45.6367C79.9349 46.1546 81.0487 47.1903 81.6703 48.552C82.292 49.9089 82.349 51.4337 81.833 52.8337C81.0248 55.0201 78.9218 56.4922 76.5935 56.4922V56.497ZM32.3782 30.5235C30.0788 30.5235 28.2191 32.3791 28.2048 34.6614C28.1952 36.6034 29.5003 38.2767 31.3791 38.7322C31.3982 38.7322 31.4126 38.7418 31.4269 38.7466C34.0801 39.5953 59.0297 48.8109 75.1545 54.7996C75.6184 54.9722 76.1057 55.0585 76.5935 55.0585C78.3241 55.0585 79.887 53.9653 80.4848 52.3399C80.8671 51.2994 80.8241 50.1678 80.3651 49.1561C79.9067 48.1444 79.0746 47.3773 78.0375 46.9889C78.0375 46.9889 67.1229 42.9372 56.1327 38.8809C34.3287 30.84 33.4395 30.5283 32.3782 30.5187V30.5235Z" fill="black"/>
<path d="M43.3449 39.4117C45.1503 35.1805 44.1524 30.6938 41.1159 29.3904C38.0794 28.0869 34.1542 30.4603 32.3487 34.6915C30.5432 38.9226 31.5412 43.4093 34.5777 44.7128C37.6142 46.0162 41.5394 43.6428 43.3449 39.4117Z" fill="white"/>
<path d="M36.3216 45.7807C35.6285 45.7807 34.9448 45.6464 34.2995 45.3683C30.9053 43.9107 29.7388 38.9913 31.6941 34.4026C33.6541 29.814 38.0092 27.2632 41.3986 28.7208C44.7927 30.1784 45.9592 35.0978 44.004 39.6865C42.4168 43.4024 39.2664 45.7807 36.3216 45.7807ZM39.3382 29.7421C36.9718 29.7421 34.3616 31.799 33.0087 34.9684C31.3594 38.8282 32.1913 42.899 34.8588 44.0449C37.5263 45.1909 41.0353 42.9805 42.6845 39.1207C44.3339 35.2609 43.502 31.1901 40.8345 30.0442C40.3564 29.838 39.8544 29.7421 39.3382 29.7421Z" fill="black"/>
<path d="M15.7464 18.9922L35.4709 26.1556L38.0907 35.5678L29.1702 40.9284L16.9703 36.6083L12.3952 30.8593L10.2822 24.5398L15.7464 18.9922Z" fill="white"/>
<path d="M10.6651 22.4203C6.98883 20.0613 4.85193 15.6213 11.3678 15.2857C17.8837 14.95 27.005 19.7832 27.005 19.7832L32.4691 20.6942C35.3088 13.4301 39.0663 11.1333 42.4031 13.8712C46.065 16.8775 38.9229 25.6807 38.9229 25.6807C40.6534 29.555 38.5834 34.4025 38.5834 34.4025" fill="white"/>
<path d="M38.5878 35.1266C38.4921 35.1266 38.3965 35.1074 38.3057 35.0691C37.9424 34.9157 37.7702 34.4889 37.928 34.1245C37.9472 34.0766 39.8498 29.5071 38.2722 25.9781C38.1622 25.7288 38.2005 25.4411 38.3726 25.2301C40.2322 22.9335 44.5013 16.518 41.9532 14.4275C40.9302 13.5884 39.888 13.3007 38.8554 13.5692C36.8237 14.1014 34.7967 16.7242 33.1427 20.9532C33.0184 21.2696 32.6885 21.4567 32.3587 21.3991L26.8945 20.4881C26.818 20.4737 26.7463 20.4497 26.6746 20.4162C26.5838 20.3682 17.6633 15.6885 11.4055 16.005C9.39291 16.1105 8.15958 16.6283 7.93485 17.4722C7.63846 18.5942 9.00569 20.5025 11.0518 21.8163C11.3864 22.0321 11.4821 22.4732 11.2717 22.8088C11.0565 23.1444 10.612 23.2404 10.2821 23.0245C8.03046 21.5765 5.99875 19.1839 6.55326 17.0982C6.83057 16.0386 7.89184 14.7439 11.3386 14.5665C17.6776 14.2405 26.1535 18.5222 27.2435 19.088L32.0288 19.8839C33.8407 15.4728 36.0732 12.8116 38.4969 12.1739C39.9836 11.7855 41.4895 12.1739 42.8663 13.3103C46.6525 16.4221 41.2075 23.9308 39.759 25.7959C41.2887 29.8236 39.3383 34.4841 39.2522 34.6855C39.1375 34.9588 38.8698 35.1218 38.5925 35.1218L38.5878 35.1266Z" fill="black"/>
<path d="M22.7748 24.2232C22.7748 24.2232 15.6279 20.2435 9.11196 20.5792C2.59608 20.9148 4.73298 25.3548 8.4092 27.7138" fill="white"/>
<path d="M8.4086 28.433C8.2747 28.433 8.14086 28.3947 8.02138 28.3179C5.76972 26.8699 3.73798 24.4773 4.29253 22.3916C4.5698 21.3319 5.63108 20.0373 9.07786 19.8599C15.7084 19.5147 22.8219 23.4273 23.1231 23.595C23.4673 23.7869 23.5964 24.2232 23.4004 24.5732C23.2091 24.9184 22.7741 25.0479 22.4251 24.8513C22.3535 24.813 15.3738 20.9771 9.14953 21.2984C7.13697 21.4038 5.90357 21.9217 5.67888 22.7656C5.38249 23.8876 6.74975 25.7959 8.79582 27.1097C9.13045 27.3254 9.22605 27.7665 9.01569 28.1022C8.87707 28.3179 8.64762 28.433 8.41339 28.433H8.4086Z" fill="black"/>
<path d="M21.4452 29.2673C21.4452 29.2673 14.1405 25.2157 7.62468 25.5466C1.10877 25.8822 3.24567 30.3222 6.92192 32.6812C10.5982 35.0402 19.294 36.2965 19.294 36.2965" fill="white"/>
<path d="M19.2942 37.0206C19.2608 37.0206 19.2273 37.0206 19.189 37.011C18.8257 36.9583 10.2924 35.7068 6.53015 33.2903C4.2785 31.8422 2.24678 29.4496 2.80132 27.3639C3.07859 26.3043 4.13987 25.0096 7.58662 24.8322C14.2173 24.487 21.4837 28.4715 21.7896 28.6393C22.1338 28.8311 22.2629 29.2674 22.0717 29.6175C21.8805 29.9674 21.4454 30.0921 21.0965 29.9003C21.0248 29.862 13.8874 25.9447 7.65836 26.2707C5.64574 26.3762 4.41236 26.894 4.18768 27.7379C3.89128 28.8599 5.25852 30.7682 7.30459 32.082C10.804 34.3307 19.3086 35.5774 19.3946 35.5918C19.7866 35.6493 20.0591 36.0137 20.0017 36.4069C19.9492 36.7665 19.6432 37.0254 19.2942 37.0254V37.0206Z" fill="black"/>
<path d="M39.0285 33.1079C40.7686 37.5239 34.855 46.1114 26.7855 44.0784C22.177 42.9181 19.9875 39.5953 19.9875 39.5953C19.9875 39.5953 16.0483 41.8152 11.5738 42.2468C7.09916 42.6783 4.05398 39.1493 6.54466 36.0471C9.03532 32.9449 18.7589 34.2443 18.7589 34.2443" fill="white"/>
<path d="M29.1706 45.0999C28.3196 45.0999 27.4639 44.9944 26.6082 44.7786C22.8602 43.8341 20.6277 41.5518 19.7768 40.5161C18.5147 41.149 15.2687 42.6162 11.6355 42.9614C8.92495 43.2204 6.41994 42.1079 5.3969 40.1996C4.60333 38.7228 4.81846 37.0398 5.98013 35.5918C8.65243 32.269 17.812 33.391 18.8494 33.5301C19.2414 33.5828 19.5186 33.9424 19.466 34.3404C19.4134 34.7336 19.0501 35.0068 18.6629 34.9589C16.0719 34.6137 8.93931 34.2157 7.10355 36.498C6.30518 37.4906 6.15226 38.5646 6.66374 39.5188C7.28998 40.6887 9.03014 41.7675 11.5016 41.5278C15.7659 41.1202 19.5951 38.9865 19.6334 38.9673C19.9584 38.7851 20.3744 38.881 20.5847 39.1975C20.6038 39.2263 22.7025 42.3093 26.9619 43.3786C31.8524 44.6108 35.1032 41.6189 36.2792 40.2811C38.2297 38.0516 39.0902 35.2082 38.3683 33.3718C38.2249 33.0026 38.4018 32.5855 38.7699 32.4368C39.138 32.293 39.5539 32.4704 39.7021 32.8396C40.6295 35.1938 39.6878 38.5646 37.3597 41.2257C35.1654 43.7334 32.2301 45.0903 29.1801 45.0903L29.1706 45.0999Z" fill="black"/>
<path d="M25.418 30.1258C25.418 30.1258 29.3954 26.688 33.8079 28.836L25.418 30.1258Z" fill="white"/>
<path d="M25.4178 30.845C25.217 30.845 25.0162 30.7586 24.8728 30.5957C24.6146 30.2936 24.648 29.8429 24.9492 29.5839C25.1261 29.4305 29.3378 25.8632 34.1231 28.1934C34.4816 28.366 34.6298 28.7976 34.453 29.1524C34.2809 29.512 33.8506 29.6607 33.4969 29.4833C29.5673 27.5701 26.0344 30.5429 25.8862 30.6724C25.7524 30.7874 25.585 30.845 25.4178 30.845Z" fill="black"/>
<path d="M148.937 50.4699L130.087 60.3903L139.52 79.5362L118.451 76.4434L114.881 97.4974L99.6446 82.5665L84.4093 97.4974L80.8378 76.4434L59.7655 79.5362L69.1973 60.3903L50.3525 50.4699L69.1973 40.5447L59.7655 21.3991L80.8378 24.4965L84.4093 3.43774L99.6446 18.3688L114.881 3.43774L118.451 24.4965L139.52 21.3991L130.087 40.5447L148.937 50.4699Z" fill="#FFE100"/>
<path d="M114.881 98.2168C114.694 98.2168 114.518 98.1444 114.379 98.0106L99.6449 83.5687L84.9115 98.0106C84.7201 98.1971 84.4427 98.2646 84.1899 98.1781C83.9364 98.0965 83.7499 97.8811 83.7069 97.6123L80.2502 77.2486L59.8709 80.2408C59.608 80.2795 59.3451 80.169 59.1873 79.953C59.0295 79.7376 59.0056 79.4498 59.1251 79.2099L68.2464 60.6973L50.0182 51.0981C49.7839 50.9735 49.6357 50.7289 49.6357 50.4604C49.6357 50.1919 49.7839 49.9474 50.0182 49.8227L68.2464 40.2235L59.1251 21.7108C59.0056 21.4711 59.0295 21.1834 59.1873 20.9676C59.3451 20.7519 59.608 20.6416 59.8709 20.6799L80.2502 23.6719L83.702 3.3084C83.745 3.04468 83.9315 2.82892 84.1849 2.74261C84.4384 2.6611 84.7151 2.72343 84.9066 2.91043L99.6406 17.3524L114.374 2.91043C114.565 2.72343 114.842 2.6611 115.096 2.74261C115.349 2.82412 115.536 3.03989 115.579 3.3084L119.03 23.6719L139.409 20.6799C139.673 20.6416 139.935 20.7519 140.093 20.9676C140.251 21.1834 140.275 21.4711 140.156 21.7108L131.034 40.2235L149.262 49.8227C149.497 49.9474 149.645 50.1919 149.645 50.4604C149.645 50.7289 149.497 50.9735 149.262 51.0981L131.034 60.6973L140.156 79.2099C140.275 79.4498 140.251 79.7376 140.093 79.953C139.935 80.169 139.673 80.2795 139.409 80.2408L119.03 77.2486L115.579 97.6123C115.536 97.8762 115.349 98.0922 115.096 98.1781C115.024 98.202 114.948 98.2119 114.876 98.2119L114.881 98.2168ZM99.6449 81.8474C99.8265 81.8474 100.008 81.9143 100.147 82.0536L114.403 96.0303L117.744 76.3282C117.811 75.9446 118.169 75.6807 118.557 75.7384L138.277 78.6349L129.452 60.7213C129.28 60.3712 129.418 59.9493 129.763 59.7671L147.403 50.4796L129.763 41.1921C129.418 41.0099 129.28 40.5879 129.452 40.2379L138.277 22.3245L118.557 25.2206C118.169 25.2734 117.811 25.0145 117.744 24.6309L114.403 4.92904L100.147 18.9058C99.8695 19.1792 99.4252 19.1792 99.1429 18.9058L84.8876 4.92904L81.5462 24.6309C81.4787 25.0145 81.1203 25.2782 80.7331 25.2206L61.0135 22.3245L69.8382 40.2379C70.0106 40.5879 69.872 41.0099 69.5277 41.1921L51.8874 50.4796L69.5277 59.7671C69.872 59.9493 70.0106 60.3712 69.8382 60.7213L61.0135 78.6349L80.7331 75.7384C81.1154 75.6807 81.4787 75.9446 81.5462 76.3282L84.8876 96.0303L99.1429 82.0536C99.2816 81.9192 99.4632 81.8474 99.6449 81.8474Z" fill="black"/>
<path d="M99.6455 80.3606C116.105 80.3606 129.448 66.9785 129.448 50.4701C129.448 33.9619 116.105 20.5793 99.6455 20.5793C83.1865 20.5793 69.8438 33.9619 69.8438 50.4701C69.8438 66.9785 83.1865 80.3606 99.6455 80.3606Z" fill="#FD2222"/>
<path d="M99.6461 81.0796C82.8183 81.0796 69.127 67.3477 69.127 50.4698C69.127 33.5921 82.8183 19.8599 99.6461 19.8599C116.473 19.8599 130.165 33.5921 130.165 50.4698C130.165 67.3477 116.473 81.0796 99.6461 81.0796ZM99.6461 21.2935C83.6069 21.2935 70.5611 34.3785 70.5611 50.465C70.5611 66.5518 83.6069 79.6368 99.6461 79.6368C115.685 79.6368 128.73 66.5518 128.73 50.465C128.73 34.3785 115.685 21.2935 99.6461 21.2935Z" fill="black"/>
<path d="M90.7823 50.7434C90.8492 50.7434 90.9118 50.7434 90.9787 50.7434C93.0964 50.7434 95.0804 51.29 96.787 52.2442C97.7093 50.403 98.2549 48.1111 98.2549 45.6274C98.2549 39.5572 94.9988 34.6377 90.9787 34.6377C89.5495 34.6377 88.2203 35.261 87.0967 36.335C89.4777 39.164 90.9787 43.2923 90.9787 47.8905C90.9787 48.8686 90.9118 49.8228 90.7823 50.7482V50.7434Z" fill="white"/>
<path d="M96.7863 52.9586C96.6666 52.9586 96.5476 52.9298 96.4371 52.8675C94.7833 51.9468 92.9 51.4578 90.978 51.4578H90.7914C90.5908 51.4578 90.3803 51.3763 90.2416 51.2181C90.1029 51.0598 90.0409 50.8489 90.0698 50.6427C90.1937 49.7364 90.2606 48.811 90.2606 47.8856C90.2606 43.6375 88.9081 39.5955 86.5461 36.7953C86.3025 36.5028 86.3265 36.0713 86.5989 35.8124C87.8944 34.5705 89.4101 33.9185 90.978 33.9185C95.3859 33.9185 98.9709 39.1687 98.9709 45.6273C98.9709 48.1494 98.4358 50.5468 97.4269 52.5654C97.341 52.7428 97.1833 52.8722 96.9968 52.9298C96.9299 52.949 96.8581 52.9634 96.7863 52.9634V52.9586ZM91.5898 50.0338C93.2823 50.1153 94.941 50.5324 96.4518 51.2564C97.1637 49.583 97.5368 47.6507 97.5368 45.6225C97.5368 39.9599 94.5967 35.3521 90.978 35.3521C89.974 35.3521 88.9891 35.7213 88.0858 36.4213C90.3852 39.4421 91.6947 43.5752 91.6947 47.8856C91.6947 48.6049 91.6567 49.3241 91.5898 50.0338Z" fill="black"/>
<path d="M83.7022 45.6224C83.7022 48.1061 84.2471 50.398 85.17 52.2393C86.8239 51.3186 88.736 50.7768 90.7777 50.7433C90.9065 49.8179 90.9734 48.8637 90.9734 47.8856C90.9734 43.2874 89.4724 39.159 87.0914 36.3301C85.0553 38.2768 83.6973 41.7098 83.6973 45.6224H83.7022Z" fill="black"/>
<path d="M85.17 52.9584C85.0982 52.9584 85.0264 52.9488 84.9595 52.9248C84.7729 52.8673 84.6152 52.733 84.5293 52.5604C83.5205 50.5418 82.9854 48.1396 82.9854 45.6223C82.9854 41.6427 84.3379 37.9747 86.5992 35.8122C86.7428 35.6731 86.9385 35.6012 87.1349 35.6156C87.3307 35.6252 87.5172 35.7163 87.6412 35.8698C90.2179 38.9288 91.6956 43.3064 91.6956 47.8903C91.6956 48.8828 91.6281 49.8753 91.4901 50.8487C91.4422 51.1987 91.1458 51.4624 90.7917 51.4672C88.9323 51.496 87.111 51.9851 85.5191 52.872C85.4087 52.9344 85.2896 52.9632 85.17 52.9632V52.9584ZM87.0484 37.428C85.3946 39.3747 84.4195 42.3667 84.4195 45.6223C84.4195 47.6505 84.792 49.5828 85.5044 51.2562C86.9484 50.5658 88.5261 50.1534 90.1418 50.0479C90.2179 49.3335 90.2566 48.6095 90.2566 47.8855C90.2566 43.9489 89.0949 40.1851 87.0441 37.428H87.0484Z" fill="black"/>
<path d="M82.3019 55.2216C82.1294 55.2216 81.9527 55.1593 81.8189 55.0347C81.5274 54.7661 81.5078 54.3106 81.776 54.0181C84.0993 51.4769 87.4548 50.0193 90.9833 50.0193C93.1489 50.0193 95.2808 50.5707 97.1402 51.6112C97.4844 51.8029 97.609 52.2441 97.4175 52.5893C97.2267 52.9345 96.7867 53.0592 96.4424 52.8674C94.7929 51.9468 92.9047 51.4577 90.9833 51.4577C87.8567 51.4577 84.8878 52.7476 82.8321 54.9915C82.6891 55.1449 82.4976 55.2264 82.3019 55.2264V55.2216Z" fill="black"/>
<path d="M107.6 50.7434C107.667 50.7434 107.729 50.7434 107.796 50.7434C109.914 50.7434 111.898 51.29 113.604 52.2442C114.527 50.403 115.072 48.1111 115.072 45.6274C115.072 39.5572 111.816 34.6377 107.796 34.6377C106.367 34.6377 105.038 35.261 103.914 36.335C106.295 39.164 107.796 43.2923 107.796 47.8905C107.796 48.8686 107.729 49.8228 107.6 50.7482V50.7434Z" fill="white"/>
<path d="M113.605 52.9586C113.485 52.9586 113.366 52.9298 113.255 52.8675C111.602 51.9468 109.718 51.4578 107.796 51.4578H107.61C107.39 51.4578 107.199 51.3763 107.06 51.2181C106.921 51.0598 106.859 50.8489 106.888 50.6427C107.012 49.7364 107.079 48.811 107.079 47.8856C107.079 43.6375 105.726 39.5955 103.365 36.7953C103.121 36.5028 103.145 36.0713 103.417 35.8124C104.713 34.5705 106.228 33.9185 107.796 33.9185C112.204 33.9185 115.789 39.1687 115.789 45.6273C115.789 48.1494 115.254 50.5468 114.245 52.5654C114.159 52.7428 114.002 52.8722 113.815 52.9298C113.748 52.949 113.676 52.9634 113.605 52.9634V52.9586ZM108.408 50.0338C110.101 50.1153 111.759 50.5324 113.27 51.2564C113.983 49.583 114.355 47.6507 114.355 45.6225C114.355 39.9599 111.415 35.3521 107.796 35.3521C106.792 35.3521 105.807 35.7213 104.904 36.4213C107.204 39.4421 108.513 43.5752 108.513 47.8856C108.513 48.6049 108.475 49.3241 108.408 50.0338Z" fill="black"/>
<path d="M100.525 45.6224C100.525 48.1061 101.07 50.398 101.993 52.2393C103.647 51.3186 105.559 50.7768 107.601 50.7433C107.73 49.8179 107.797 48.8637 107.797 47.8856C107.797 43.2874 106.296 39.159 103.915 36.3301C101.879 38.2768 100.521 41.7098 100.521 45.6224H100.525Z" fill="black"/>
<path d="M101.993 52.9584C101.921 52.9584 101.85 52.9488 101.783 52.9248C101.596 52.8673 101.438 52.733 101.353 52.5604C100.344 50.5418 99.8086 48.1444 99.8086 45.6223C99.8086 41.6427 101.161 37.9747 103.422 35.8122C103.566 35.6731 103.757 35.6012 103.958 35.6156C104.154 35.6252 104.34 35.7163 104.464 35.8698C107.041 38.9288 108.518 43.3064 108.518 47.8903C108.518 48.8828 108.451 49.8753 108.313 50.8487C108.265 51.1987 107.968 51.4624 107.615 51.4672C105.756 51.496 103.934 51.9851 102.342 52.872C102.232 52.9344 102.112 52.9632 101.993 52.9632V52.9584ZM103.867 37.428C102.213 39.3747 101.238 42.3667 101.238 45.6223C101.238 47.6505 101.61 49.5828 102.323 51.2562C103.767 50.5658 105.344 50.1534 106.96 50.0479C107.036 49.3335 107.075 48.6095 107.075 47.8855C107.075 43.9489 105.913 40.1851 103.862 37.428H103.867Z" fill="black"/>
<path d="M115.943 54.6751C115.765 54.6751 115.589 54.6079 115.45 54.4784C113.409 52.5318 110.694 51.4577 107.801 51.4577C107.404 51.4577 107.084 51.1365 107.084 50.7385C107.084 50.3405 107.404 50.0193 107.801 50.0193C111.062 50.0193 114.131 51.2324 116.44 53.4332C116.726 53.7065 116.736 54.162 116.464 54.4497C116.325 54.5983 116.134 54.6751 115.943 54.6751Z" fill="black"/>
<path d="M88.7697 74.1176L65.2254 101.155C64.2645 102.258 62.912 102.824 61.5588 102.824C60.421 102.824 59.2833 102.426 58.3606 101.621C56.3337 99.8465 56.1281 96.7635 57.8969 94.7305L81.4414 67.6926" fill="#FD2222"/>
<path d="M61.5586 103.543C60.2105 103.543 58.9054 103.054 57.8871 102.163C55.5686 100.13 55.3296 96.5863 57.3565 94.2611L80.9006 67.2233C81.1589 66.9257 81.613 66.8919 81.9143 67.1558C82.2156 67.4197 82.2439 67.8701 81.9812 68.1727L58.4369 95.2105C56.931 96.941 57.1079 99.5736 58.8337 101.084C59.589 101.745 60.5595 102.11 61.5635 102.11C62.7632 102.11 63.901 101.592 64.6901 100.686L88.2338 73.6483C88.4921 73.3507 88.9463 73.317 89.2476 73.5808C89.544 73.8398 89.5771 74.2951 89.3144 74.5977L65.7702 101.635C64.7092 102.853 63.1744 103.553 61.5635 103.553L61.5586 103.543Z" fill="black"/>
<path d="M55.4688 95.6321C55.4688 95.6321 57.7252 90.1423 61.2628 93.2922C64.8006 96.4427 69.3803 103.371 63.0983 105.351" fill="white"/>
<path d="M63.0939 106.07C62.7876 106.07 62.5054 105.874 62.4102 105.567C62.2906 105.188 62.5011 104.785 62.8785 104.666C64.3604 104.196 65.1969 103.443 65.4264 102.36C65.9382 99.957 63.4185 96.1738 60.7847 93.829C60.0484 93.1724 59.3791 92.9282 58.729 93.0767C57.4335 93.3737 56.4104 95.2196 56.1284 95.9057C55.9754 96.2696 55.5595 96.4475 55.1914 96.2941C54.828 96.1407 54.6512 95.7234 54.8042 95.354C54.8568 95.2245 56.1236 92.2041 58.4039 91.6714C59.5226 91.4124 60.6412 91.772 61.7358 92.7502C63.8296 94.6157 67.592 99.0844 66.8274 102.657C66.588 103.764 65.7897 105.25 63.3086 106.037C63.2368 106.061 63.1657 106.07 63.0939 106.07Z" fill="black"/>
<path d="M57.978 95.5411C57.978 95.5411 59.6847 87.62 52.8628 83.3913C46.9493 79.7228 41.0262 82.6475 38.4639 88.8234L57.978 112.639V114.993C57.978 114.993 63.0021 113.267 64.6185 109.575C66.2343 105.883 62.3762 102.287 62.3762 102.287" fill="white"/>
<path d="M57.9784 115.718C57.8302 115.718 57.6868 115.67 57.5624 115.583C57.376 115.449 57.2612 115.229 57.2612 114.999V112.898L37.9096 89.2788C37.7423 89.0726 37.6993 88.7897 37.7997 88.5455C39.253 85.036 41.8105 82.466 44.8127 81.497C47.552 80.6152 50.4633 81.0558 53.2361 82.7771C60.4021 87.2219 58.6906 95.6081 58.6763 95.6897C58.595 96.0782 58.2078 96.3224 57.8254 96.2414C57.4382 96.1598 57.1944 95.7763 57.2756 95.3878C57.3378 95.0859 58.7767 87.903 52.4855 84.0001C50.0809 82.5089 47.5806 82.1156 45.2525 82.8685C42.7619 83.6743 40.6059 85.7883 39.2912 88.7038L58.5281 112.184C58.6333 112.313 58.6906 112.471 58.6906 112.64V113.92C60.1535 113.248 62.8974 111.709 63.959 109.293C65.3453 106.123 61.9174 102.848 61.8842 102.82C61.5971 102.546 61.578 102.096 61.8505 101.803C62.1181 101.515 62.5722 101.496 62.8643 101.765C63.0361 101.928 67.0758 105.759 65.2735 109.873C63.5522 113.804 58.4277 115.607 58.2078 115.679C58.1313 115.703 58.0548 115.718 57.9736 115.718H57.9784Z" fill="black"/>
<path d="M56.4535 102.561C56.4535 102.561 54.8376 86.2681 44.3395 86.2681C33.8415 86.2681 35.8158 99.7698 45.506 105.979C45.506 105.979 47.5712 115.43 57.1705 114.979C66.7697 114.528 56.4535 102.561 56.4535 102.561Z" fill="white"/>
<path d="M56.5156 115.718C47.9728 115.718 45.3435 108.055 44.8846 106.435C38.928 102.493 35.4382 95.5123 36.9202 90.4251C37.8333 87.2844 40.4721 85.5532 44.3444 85.5532C54.7947 85.5532 56.8981 100.163 57.1466 102.263C58.2366 103.558 63.2228 109.777 61.688 113.368C61.0715 114.806 59.5656 115.593 57.2088 115.703C56.9746 115.713 56.7451 115.718 56.5156 115.718ZM44.3396 86.9916C41.1175 86.9916 39.0236 88.3202 38.2922 90.8276C37.1496 94.7495 39.7311 101.429 45.8885 105.375C46.051 105.476 46.161 105.639 46.204 105.826C46.2805 106.176 48.1736 114.274 56.5108 114.274C56.7164 114.274 56.922 114.274 57.1323 114.26C58.8916 114.179 59.9768 113.685 60.3592 112.792C61.4395 110.271 57.51 104.886 55.9037 103.025C55.8081 102.915 55.746 102.776 55.7316 102.628C55.7173 102.469 54.0585 86.9873 44.33 86.9873L44.3396 86.9916Z" fill="black"/>
<path d="M110.521 74.1176L134.065 101.155C135.026 102.258 136.379 102.824 137.732 102.824C138.87 102.824 140.008 102.426 140.93 101.621C142.957 99.8465 143.163 96.7635 141.394 94.7305L117.85 67.6926" fill="#FD2222"/>
<path d="M137.732 103.543C136.116 103.543 134.586 102.844 133.525 101.626L109.981 74.5878C109.722 74.2908 109.751 73.8348 110.048 73.5716C110.344 73.3126 110.798 73.3414 111.061 73.6385L134.606 100.676C135.394 101.583 136.532 102.101 137.732 102.101C138.736 102.101 139.702 101.736 140.462 101.075C141.298 100.341 141.795 99.3287 141.872 98.2217C141.948 97.114 141.585 96.0395 140.858 95.2006L117.314 68.1628C117.056 67.8658 117.085 67.4098 117.381 67.1466C117.677 66.8827 118.132 66.9158 118.395 67.2134L141.939 94.2513C142.919 95.378 143.406 96.8213 143.306 98.3125C143.206 99.8037 142.532 101.17 141.408 102.153C140.39 103.045 139.085 103.534 137.737 103.534L137.732 103.543Z" fill="black"/>
<path d="M143.822 95.6321C143.822 95.6321 141.566 90.1423 138.029 93.2922C134.491 96.4427 129.911 103.371 136.193 105.351" fill="white"/>
<path d="M136.198 106.07C136.126 106.07 136.054 106.06 135.982 106.037C133.501 105.255 132.698 103.769 132.464 102.656C131.704 99.0844 135.461 94.6157 137.555 92.7502C138.65 91.7769 139.769 91.4124 140.887 91.6714C143.168 92.1991 144.434 95.2245 144.487 95.354C144.64 95.7234 144.463 96.1401 144.095 96.2935C143.732 96.4475 143.311 96.2695 143.158 95.9056C142.876 95.2196 141.853 93.3737 140.558 93.0767C139.907 92.9275 139.238 93.1724 138.502 93.829C135.868 96.1738 133.349 99.957 133.86 102.359C134.089 103.443 134.926 104.2 136.408 104.666C136.786 104.785 136.996 105.188 136.876 105.567C136.781 105.874 136.499 106.07 136.193 106.07H136.198Z" fill="black"/>
<path d="M141.308 95.5411C141.308 95.5411 139.601 87.62 146.423 83.3913C152.337 79.7228 158.26 82.6475 160.822 88.8234L141.308 112.639V114.993C141.308 114.993 136.284 113.267 134.668 109.575C133.052 105.883 136.91 102.287 136.91 102.287" fill="white"/>
<path d="M141.308 115.718C141.232 115.718 141.15 115.703 141.074 115.679C140.858 115.602 135.729 113.804 134.008 109.873C132.211 105.764 136.246 101.928 136.417 101.765C136.709 101.496 137.159 101.511 137.431 101.803C137.699 102.096 137.685 102.551 137.392 102.82C137.359 102.853 133.927 106.123 135.318 109.293C136.379 111.714 139.123 113.248 140.586 113.92V112.64C140.586 112.471 140.644 112.313 140.749 112.184L159.986 88.7038C158.671 85.7883 156.52 83.6694 154.024 82.8685C151.701 82.1156 149.196 82.5089 146.791 84.0001C140.476 87.9171 141.982 95.3111 142.001 95.3878C142.083 95.7763 141.838 96.1598 141.451 96.2414C141.064 96.3224 140.682 96.0782 140.601 95.6897C140.581 95.6032 138.87 87.2219 146.041 82.7771C148.813 81.0558 151.729 80.6152 154.464 81.497C157.466 82.466 160.024 85.036 161.477 88.5455C161.577 88.7897 161.539 89.0726 161.367 89.2788L142.015 112.898V114.999C142.015 115.229 141.905 115.449 141.714 115.583C141.59 115.67 141.446 115.718 141.298 115.718H141.308Z" fill="black"/>
<path d="M142.837 102.561C142.837 102.561 144.454 86.2681 154.951 86.2681C165.449 86.2681 163.475 99.7698 153.785 105.979C153.785 105.979 151.72 115.43 142.12 114.979C132.521 114.528 142.837 102.561 142.837 102.561Z" fill="white"/>
<path d="M142.776 115.718C142.551 115.718 142.322 115.713 142.083 115.703C139.726 115.593 138.22 114.806 137.603 113.368C136.069 109.782 141.055 103.563 142.145 102.263C142.394 100.163 144.497 85.5532 154.947 85.5532C158.819 85.5532 161.454 87.2844 162.367 90.4251C163.848 95.5123 160.359 102.498 154.402 106.435C153.943 108.055 151.314 115.718 142.771 115.718H142.776ZM154.952 86.9916C145.229 86.9916 143.565 102.479 143.55 102.633C143.536 102.781 143.474 102.92 143.379 103.03C141.772 104.891 137.847 110.28 138.923 112.797C139.305 113.69 140.391 114.179 142.15 114.265C151.003 114.687 153.001 106.19 153.083 105.826C153.126 105.639 153.236 105.476 153.398 105.375C159.561 101.429 162.137 94.7495 160.995 90.8276C160.263 88.3202 158.174 86.9916 154.947 86.9916H154.952Z" fill="black"/>
<path d="M108.934 62.8454C110.048 61.0377 110.697 58.8944 110.697 56.5881H88.2627C88.2627 58.8896 88.9126 61.0377 90.0264 62.8454C92.0343 61.0137 95.5149 59.7959 99.4779 59.7959C103.441 59.7959 106.921 61.0089 108.929 62.8454H108.934Z" fill="black"/>
<path d="M108.934 63.5645C108.758 63.5645 108.585 63.497 108.451 63.3774C106.491 61.5842 103.135 60.5149 99.4834 60.5149C95.8309 60.5149 92.4748 61.5842 90.5148 63.3774C90.357 63.521 90.1417 63.5885 89.9318 63.5596C89.7213 63.5308 89.5347 63.4062 89.42 63.2239C88.1964 61.2389 87.5508 58.947 87.5508 56.5928C87.5508 56.1948 87.8711 55.8735 88.2682 55.8735H110.703C111.1 55.8735 111.42 56.1948 111.42 56.5928C111.42 58.947 110.775 61.2437 109.551 63.2239C109.441 63.4062 109.25 63.5259 109.039 63.5596C109.006 63.5596 108.972 63.5645 108.939 63.5645H108.934ZM99.4834 59.0813C103.097 59.0813 106.477 60.069 108.734 61.7518C109.446 60.3807 109.862 58.8703 109.962 57.312H89.0088C89.1095 58.8703 89.5255 60.3807 90.2374 61.7518C92.4938 60.069 95.8738 59.0813 99.4877 59.0813H99.4834Z" fill="black"/>
<path d="M99.4822 68.2205C103.455 68.2205 106.945 66.077 108.934 62.8504C106.926 61.0186 103.446 59.8008 99.4822 59.8008C95.5192 59.8008 92.0391 61.0139 90.0312 62.8504C92.025 66.077 95.51 68.2205 99.4822 68.2205Z" fill="white"/>
<path d="M99.4826 68.9396C95.3907 68.9396 91.6284 66.8059 89.4198 63.2288C89.2382 62.9361 89.291 62.5526 89.5487 62.3176C91.7671 60.2944 95.4816 59.0813 99.4826 59.0813C103.484 59.0813 107.199 60.2896 109.417 62.3176C109.67 62.5526 109.728 62.9318 109.546 63.2288C107.337 66.8059 103.575 68.9396 99.4826 68.9396ZM90.9785 62.984C92.9527 65.8228 96.0885 67.4962 99.4826 67.4962C102.877 67.4962 106.008 65.8179 107.987 62.984C105.984 61.4308 102.863 60.515 99.4826 60.515C96.1032 60.515 92.9815 61.4308 90.9785 62.984Z" fill="black"/>
<path d="M100.032 71.7826C96.8007 71.7826 94.4006 70.397 94.2478 70.3062C93.9085 70.1043 93.7937 69.6637 93.9944 69.3231C94.1951 68.9825 94.6351 68.8671 94.9744 69.069C95.1708 69.1838 99.8935 71.8833 104.779 69.069C105.124 68.872 105.559 68.9874 105.759 69.3323C105.955 69.6778 105.84 70.1141 105.497 70.3154C103.584 71.4181 101.696 71.7875 100.032 71.7875V71.7826Z" fill="black"/>
</g>
</g>
<defs>
<clipPath id="clip0_303_1210">
<rect width="194.53" height="118.436" fill="white"/>
</clipPath>
</defs>
</svg>
